<svg version="1.2" xmlns="http://www.w3.org/2000/svg" viewBox="0 0 438 143" width="144" height="47">
	<title>Wuthering_Waves_logo</title>
	<style>
		.s0 { fill: #000000 } 
	</style>
	<path class="s0" d="m336.8 129.1v4.7c0 2.8-2.6 3.9-3.6 3.9h-16c-2.1 0-4.5-1-5.4-4.7-0.3-1-0.1 0-0.1 0 0 0 0 3.6 0 3.7 0 3.9 3.7 5.3 5.1 5.3h26.1c1.4 0 5.1-1.4 5.1-5.3 0-0.1 0-9.6 0-9.6 0 0 0-2.6 0-2.7 0-1.5-0.9-2.4-1.7-3.1-2.8-2.6-15.5-12.3-15.5-12.3 0 0-3.6-2.9-4.6-4.1-0.8-0.8-1.7-1.6-1.7-3.1 0-0.1 0-2.7 0-2.7v-7.5c0 0 0-2.6 0-2.7 0-2.8 2.6-3.8 3.6-3.8h13.7c2.1 0 4.4 0.9 5.4 4.6 0 0 0-3.5 0-3.7 0-3.9-3.7-5.3-5.1-5.3h-23.6c-1.4 0-5 1.4-5 5.3 0 0.2 0 3.7 0 3.7v11.8c0 0 0 2.5 0 2.6 0 1.6 0.9 2.5 1.6 3.2 2.9 2.5 15.7 12.2 15.7 12.2 0 0 3.4 2.6 4.4 3.8 0.7 0.8 1.6 1.6 1.6 3.1 0 0.1 0 2.7 0 2.7q0 0 0 0z"/>
	<path class="s0" d="m298.1 106.1v12.4c-1.7-5-3.6-8.7-10.5-12.4z"/>
	<path class="s0" d="m303.9 133c-0.9 3.7-3.3 4.7-5.4 4.7h-16.6v-44.3c0-6.8-3.1-8.3-5.7-8.3h21.3c2 0 4.4 0.9 5.3 4.6 0.3 1.1 0.1 0 0.1 0 0 0 0-3.5 0-3.7 0-3.9-3.7-5.3-5.1-5.3h-31.2c1.9 0 4.7 3 4.7 9.3v52h27.6c1.4 0 5-1.4 5-5.3 0-0.1 0-3.7 0-3.7 0 0 0.3-1 0 0z"/>
	<path class="s0" d="m207.6 80.7h15.8l10.6 56.6h1.5c3.4 0.1 3-1.7 3.8-6.5l9.7-50.1h10.5l-10.5 57.1c-0.4 2.7-2.7 4.3-4.8 4.2h-20.6l-10.1-54.9c-0.9-2.7-3.8-6.3-5.9-6.4q0 0 0 0z"/>
	<path class="s0" d="m168.1 80.7c3 1.4 5.6 4.4 4.2 10.8l-9.7 50.5h11.1l5.4-28.2h10.1c2 0 4.4 0.9 5.3 4.5 0.3 1 4.5 23.7 4.5 23.7h11l-11.5-61.3zm12.4 4.4h3.5c2.7 0.1 4.2 0.6 5.3 5.3 0 0 4.1 20.7 3.9 20.3-1.2-1.7-2.9-1.8-4.5-1.8h-8.7l3.3-17.4c0.2-1.4 0.3-2.6 0.4-3.3 0-1.5-1.2-2.8-3.2-3.1z"/>
	<path class="s0" d="m90.5 80.7h11c3.6-0.1 5.3 2.8 5.6 4.4l9.9 52.5 7.4-38-2-9.3h3.7c2.3 0 4.6 1.8 5 3.6l8.4 43.7 9.7-50.5c0.4-2.5-1-5.8-3.2-6.4h7.7c3.9 0 6.5 2.4 6.3 5.2 0.1 1.6-10.2 56.1-10.2 56.1h-17.5l-4.8-22-3.6 22h-17.4l-10.4-54.9c-0.9-2.7-3.5-6.3-5.6-6.4z"/>
	<path class="s0" d="m436.1 61.4v-28.6c0-2.9-2.2-4.6-4.7-4.6h-9.8c2.5 0 4.7 1.7 4.7 4.6v19.3c0 1.6-1.6 4.1-4.1 4.1h-11v-43.5c0-6.8-3.1-8.3-5.8-8.3h14.3c2.6 0 7.2 2.7 7.2 9.5h10.2v-3.8c0-7.4-5-10.1-7.9-10.1h-33.8c1.9 0 4.7 3 4.7 9.3v46.9c0 3.1 3.2 5.2 5.1 5.2h11c5.5 0 10.1-3 10.1-4.1v4.1c0 0 9.8 0 9.8 0z"/>
	<path class="s0" d="m350.3 61.3l11.1 0.1v-48.7c0-6.8-3.1-8.3-5.8-8.3h15.3c2.7 0 5.8 1.5 5.8 8.3v48.7h11.1v-49.3c0-5.9-4.8-12.1-12.7-12.1h-29.5c1.9 0 4.7 3 4.7 9.3v52.1q0 0 0-0.1z"/>
	<path class="s0" d="m322.6 0c1.9 0 4.7 3.1 4.7 9.3v52.1h10.5v-56c0-4-3.6-5.4-5-5.4 0 0-10.2 0-10.2 0z"/>
	<path class="s0" d="m273.1 0c1.9 0 4.6 3 4.6 9.3v52.1h11.3v-48.7c0-6.8-3.1-8.3-5.8-8.3h14.8c2.7 0 7.2 2.5 7.2 9.3v7.3c0 5-6.5 7.2-10.3 7.2h1.3c3.7 0 9 4.9 9 14.9v13.7c0 9.9 11.6 11.4 17.7 11.4h0.2c-2.2 0-8-1.4-8-10.1 0-0.3 0-14.5 0-15 0-10-5.3-14.9-8.9-14.9 2.9 0 8-2.1 8-6.8v-11.3c0-7.4-5.1-10.1-8-10.1 0 0-33.1 0-33.1 0z"/>
	<path class="s0" d="m260.7 25.4v12.5c-1.7-5.1-3.6-8.8-10.5-12.5z"/>
	<path class="s0" d="m266.5 52.3c-0.9 3.7-3.3 4.7-5.4 4.7h-16.6v-44.3c0-6.8-3.1-8.3-5.8-8.3h21.3c2.1 0 4.5 0.9 5.4 4.6 0.3 1 0 0 0 0 0 0 0.1-3.5 0.1-3.7 0-3.9-3.7-5.3-5.1-5.3h-31.2c1.9 0 4.6 3 4.6 9.3v52h27.7c1.4 0 5-1.4 5-5.3 0-0.1 0-3.7 0-3.7 0 0 0.2-1 0 0z"/>
	<path class="s0" d="m202.4 29.4c2.6 0 5.7 1.5 5.7 8.3v23.7h10.6v-56c0-4-3.6-5.4-5.1-5.4h-10.1c1.9 0 4.6 3.1 4.6 9.3v18.8c-1-2.9-3.2-3.7-5.1-3.7h-15.8v-19c0-3.9-3.6-5.3-5.1-5.3h-10.1c1.9 0 4.6 3 4.6 9.2v52.1h10.6v-32c0 0 15.2 0 15.2 0z"/>
	<path class="s0" d="m132.9 6.2h10.1v55.2h10.5v-55.2h9.8c1.1 0 3.7 1 4.6 3.4 0 0 0.1-4.1 0.1-4.2 0-4-3.7-5.4-5.1-5.4h-29.7c-1.4 0-5 1.4-5 5.4 0 0.1 0 4.2 0 4.2 1-2.4 3.5-3.4 4.7-3.4z"/>
	<path class="s0" d="m105.1 0c1.9 0 4.7 3.1 4.7 9.3v43c0 0-1.3 7-10.2 7-10.5 0-10.5-7-10.5-7v-46.9c0-3.9-3.6-5.4-5.1-5.4h-10.1c1.9 0 4.6 3.1 4.6 9.3v44.9c0 0 2.6 9 21.1 9 22.3 0 21-10.9 21-10.9v-46.9c0-4-3.6-5.4-5.1-5.4 0 0-10.4 0-10.4 0z"/>
	<path class="s0" d="m0 0.1h11.1c3.5-0.1 5.2 2.8 5.6 4.4l9.9 52.4 7.3-38-2-9.2h3.8c2.3 0 4.5 1.8 4.9 3.6l8.5 43.7 9.6-50.5c0.4-2.5-1-5.8-3.1-6.4h7.7c3.9 0 6.4 2.3 6.3 5.2 0 1.6-10.2 56.1-10.2 56.1h-17.5l-4.9-22-3.5 22h-17.5l-10.4-54.9c-0.8-2.8-3.5-6.3-5.6-6.4z"/>
</svg>